<svg xmlns="http://www.w3.org/2000/svg" fill="none" viewBox="0 0 24 24" stroke="currentColor" strokeWidth="2">
  <path strokeLinecap="round" strokeLinejoin="round" d="M12 6.253v13.5m0-13.5c-1.806 0-3.607.275-5.337.807C3.151 7.214 2 9.57 2 12c0 2.43 1.151 4.786 3.663 5.738 1.73.532 3.531.807 5.337.807m0-13.5c1.806 0 3.607.275 5.337.807C20.849 7.214 22 9.57 22 12c0 2.43-1.151 4.786-3.663 5.738-1.73.532-3.531.807-5.337.807M12 6.253c-1.806 0-3.607.275-5.337.807C3.151 7.214 2 9.57 2 12c0 2.43 1.151 4.786 3.663 5.738 1.73.532 3.531.807 5.337.807" />
</svg> 